<?xml version="1.0" encoding="UTF-8"?>
<!DOCTYPE svg PUBLIC "-//W3C//DTD SVG 1.1//EN" "http://www.w3.org/Graphics/SVG/1.1/DTD/svg11.dtd">
<svg xmlns="http://www.w3.org/2000/svg" version="1.1" width="500px" height="500px" style="shape-rendering:geometricPrecision; text-rendering:geometricPrecision; image-rendering:optimizeQuality; fill-rule:evenodd; clip-rule:evenodd" xmlns:xlink="http://www.w3.org/1999/xlink">
<g><path style="opacity:1" fill="#c7b16b" d="M 231.5,-0.5 C 243.5,-0.5 255.5,-0.5 267.5,-0.5C 351.575,8.43939 416.741,48.1061 463,118.5C 484.129,153.717 496.295,191.717 499.5,232.5C 499.5,244.167 499.5,255.833 499.5,267.5C 488.669,364.817 439.336,434.984 351.5,478C 324.588,489.894 296.588,497.061 267.5,499.5C 255.5,499.5 243.5,499.5 231.5,499.5C 137.295,489.095 68.128,442.095 24,358.5C 10.5879,329.453 2.42126,299.119 -0.5,267.5C -0.5,255.5 -0.5,243.5 -0.5,231.5C 10.331,134.183 59.6643,64.0161 147.5,21C 174.412,9.10607 202.412,1.9394 231.5,-0.5 Z"/></g>
<g><path style="opacity:1" fill="#060503" d="M 230.5,4.5 C 320.59,1.21111 393.09,34.8778 448,105.5C 494.236,172.484 505.902,245.15 483,323.5C 454.738,405.429 399.238,459.262 316.5,485C 229.654,506.762 152.32,488.762 84.5,431C 22.5746,371.238 -3.25877,298.404 7,212.5C 22.6653,127.279 69.1653,65.4456 146.5,27C 173.413,14.9916 201.413,7.49162 230.5,4.5 Z"/></g>
<g><path style="opacity:1" fill="#ceb76e" d="M 228.5,14.5 C 327.801,10.5564 403.301,50.5564 455,134.5C 489.964,201.006 493.964,269.339 467,339.5C 433.8,414.361 377.3,461.194 297.5,480C 200.421,496.016 121.255,465.85 60,389.5C 10.9778,318.633 1.3111,242.633 31,161.5C 64.0302,86.1404 120.53,38.6404 200.5,19C 209.988,17.5598 219.322,16.0598 228.5,14.5 Z"/></g>
<g><path style="opacity:1" fill="#fefdfd" d="M 224.5,24.5 C 319.518,18.5914 392.684,55.2581 444,134.5C 478.501,196.53 484.167,261.197 461,328.5C 427.716,409.433 367.882,457.6 281.5,473C 190.903,482.267 118.403,450.767 64,378.5C 26.3612,321.008 15.3612,258.675 31,191.5C 47.789,132.402 82.289,86.9018 134.5,55C 162.563,38.7018 192.563,28.5351 224.5,24.5 Z"/></g>
<g><path style="opacity:1" fill="#060606" d="M 256.5,65.5 C 256.5,67.5 256.5,69.5 256.5,71.5C 251.833,71.5 247.167,71.5 242.5,71.5C 240.496,70.3272 238.996,68.6605 238,66.5C 237.5,57.8397 237.334,49.1731 237.5,40.5C 239.5,40.5 241.5,40.5 243.5,40.5C 243.334,48.5069 243.5,56.5069 244,64.5C 248.066,65.4637 252.233,65.797 256.5,65.5 Z"/></g>
<g><path style="opacity:1" fill="#111111" d="M 274.5,42.5 C 276.806,42.9926 279.139,43.3259 281.5,43.5C 279.98,53.8077 278.647,64.141 277.5,74.5C 275.5,74.5 273.5,74.5 271.5,74.5C 272.124,63.7981 273.124,53.1314 274.5,42.5 Z"/></g>
<g><path style="opacity:1" fill="#0b0b0b" d="M 302.5,49.5 C 309.324,48.8295 315.157,50.8295 320,55.5C 322.169,62.8416 320.002,64.8416 313.5,61.5C 314.711,60.2798 314.711,59.1131 313.5,58C 310.911,56.6859 308.244,56.0192 305.5,56C 302.664,61.4667 301.33,67.1334 301.5,73C 303.459,73.9309 305.459,74.7643 307.5,75.5C 308.5,75.1667 309.167,74.5 309.5,73.5C 308.311,72.5713 306.978,72.238 305.5,72.5C 305.317,70.0637 305.984,67.897 307.5,66C 311.221,65.7932 314.888,66.2932 318.5,67.5C 316.095,82.2412 308.595,85.5745 296,77.5C 294.121,67.2885 296.287,57.9552 302.5,49.5 Z"/></g>
<g><path style="opacity:1" fill="#0b0b0b" d="M 183.5,50.5 C 187.721,49.8076 191.387,50.8076 194.5,53.5C 197.983,61.6147 200.65,69.948 202.5,78.5C 200.5,78.8333 198.5,79.1667 196.5,79.5C 196.126,75.6978 194.793,72.3645 192.5,69.5C 190.201,70.6351 188.034,71.9684 186,73.5C 186.365,76.7938 186.865,80.1272 187.5,83.5C 185.401,84.2309 183.401,84.2309 181.5,83.5C 178.73,75.6905 176.064,67.8572 173.5,60C 174.9,54.7998 178.233,51.6332 183.5,50.5 Z"/></g>
<g><path style="opacity:1" fill="#f0f0f0" d="M 186.5,56.5 C 188.99,57.1081 190.324,58.7748 190.5,61.5C 188.807,64.1897 186.473,66.1897 183.5,67.5C 178.666,62.0156 179.666,58.349 186.5,56.5 Z"/></g>
<g><path style="opacity:1" fill="#0b0b0b" d="M 341.5,65.5 C 348.249,65.6246 353.749,68.2913 358,73.5C 358.841,77.1202 358.174,80.4536 356,83.5C 352.572,89.3663 348.905,95.033 345,100.5C 343.374,99.7113 341.874,98.7113 340.5,97.5C 341.913,94.3388 343.58,91.3388 345.5,88.5C 342.46,85.9594 339.127,85.2927 335.5,86.5C 333.841,92.6565 330.841,93.6565 326.5,89.5C 330.538,80.7264 335.538,72.7264 341.5,65.5 Z"/></g>
<g><path style="opacity:1" fill="#0d0d0d" d="M 141.5,70.5 C 143.074,70.9371 144.241,71.9371 145,73.5C 148.04,79.0816 151.207,84.5816 154.5,90C 155.833,90.6667 157.167,90.6667 158.5,90C 160.917,88.3742 163.417,86.8742 166,85.5C 167.167,87.1667 168.333,88.8333 169.5,90.5C 164.624,94.9455 158.958,97.1122 152.5,97C 150.667,95.8333 149.167,94.3333 148,92.5C 144.919,86.6688 141.585,81.0021 138,75.5C 137.251,74.365 137.417,73.365 138.5,72.5C 139.739,72.0576 140.739,71.3909 141.5,70.5 Z"/></g>
<g><path style="opacity:1" fill="#545454" d="M 256.5,65.5 C 257.468,67.6074 257.802,69.9407 257.5,72.5C 252.305,72.8205 247.305,72.4872 242.5,71.5C 247.167,71.5 251.833,71.5 256.5,71.5C 256.5,69.5 256.5,67.5 256.5,65.5 Z"/></g>
<g><path style="opacity:1" fill="#eeeeee" d="M 343.5,72.5 C 346.475,72.3069 348.975,73.3069 351,75.5C 351.536,77.5672 351.036,79.4006 349.5,81C 346.015,81.2975 342.682,80.6308 339.5,79C 341.058,76.9481 342.392,74.7815 343.5,72.5 Z"/></g>
<g><path style="opacity:1" fill="#c7b16b" d="M 228.5,92.5 C 299.389,87.3567 352.889,115.023 389,175.5C 407.801,213.279 411.801,252.612 401,293.5C 379.191,357.323 335.024,394.823 268.5,406C 210.071,411.312 162.237,391.478 125,346.5C 93.7282,303.885 84.7282,256.885 98,205.5C 119.486,142.35 162.986,104.683 228.5,92.5 Z"/></g>
<g><path style="opacity:1" fill="#040403" d="M 230.5,97.5 C 285.957,93.247 331.79,111.914 368,153.5C 403.969,200.948 411.302,252.615 390,308.5C 365.089,362.062 323.255,392.895 264.5,401C 200.798,404.803 151.965,379.969 118,326.5C 91.7782,277.304 90.7782,227.638 115,177.5C 141.026,132.898 179.526,106.231 230.5,97.5 Z"/></g>
<g><path style="opacity:1" fill="#fbfbfb" d="M 227.5,111.5 C 288.317,105.832 335.484,128.166 369,178.5C 387.208,210.083 392.541,243.75 385,279.5C 368.49,340.672 328.99,376.506 266.5,387C 213.666,391.957 170.833,373.791 138,332.5C 108.563,289.371 103.23,243.371 122,194.5C 143.508,149.494 178.675,121.827 227.5,111.5 Z"/></g>
<g><path style="opacity:1" fill="#030303" d="M 261.5,124.5 C 268.734,124.225 275.734,125.391 282.5,128C 302.037,137.534 317.871,151.367 330,169.5C 338.664,187.008 333.831,199.174 315.5,206C 298.655,208.441 281.988,207.441 265.5,203C 256.524,201.793 247.524,201.46 238.5,202C 228.532,203.643 221.032,208.809 216,217.5C 214.596,226.849 218.429,233.016 227.5,236C 240.772,240.848 254.439,242.515 268.5,241C 284.6,237.433 300.767,234.266 317,231.5C 325.41,230.337 331.744,233.337 336,240.5C 338.614,245.175 340.114,250.175 340.5,255.5C 338.512,270.149 333.679,283.816 326,296.5C 315.497,312.835 305.497,329.502 296,346.5C 295.505,348.473 295.338,350.473 295.5,352.5C 302.853,352.438 309.519,350.271 315.5,346C 328.092,336.409 337.259,324.242 343,309.5C 347.695,294.048 352.695,278.715 358,263.5C 361.862,256.316 367.695,253.65 375.5,255.5C 376.593,266.481 375.093,277.148 371,287.5C 361.288,294.598 356.954,304.264 358,316.5C 337.695,348.776 308.695,368.442 271,375.5C 262.896,373.727 260.563,369.061 264,361.5C 267.265,354.579 270.932,347.913 275,341.5C 285.667,325.5 296.333,309.5 307,293.5C 311.991,286.202 314.324,278.202 314,269.5C 307.096,266.373 300.596,267.206 294.5,272C 285.84,279.828 279.006,288.994 274,299.5C 267.333,312.833 260.667,326.167 254,339.5C 245.784,350.913 234.617,355.746 220.5,354C 205.494,351.252 193.994,343.418 186,330.5C 171.974,306.773 161.64,281.44 155,254.5C 153.846,250.498 151.513,247.498 148,245.5C 143.355,248.109 140.688,252.109 140,257.5C 138.427,275.787 142.427,292.787 152,308.5C 162.837,324.012 175.17,338.346 189,351.5C 191.209,354.789 192.042,358.456 191.5,362.5C 160.624,346.834 139.457,322.5 128,289.5C 124.577,273.337 123.244,257.004 124,240.5C 128.097,225.361 137.931,219.194 153.5,222C 161.502,224.003 167.002,228.836 170,236.5C 174.022,251.923 178.356,267.256 183,282.5C 186.54,293.757 192.707,303.257 201.5,311C 210.139,315.619 218.806,315.619 227.5,311C 232.53,305.612 233.697,299.446 231,292.5C 222.053,274.874 210.053,259.541 195,246.5C 184.051,230.859 183.718,214.859 194,198.5C 200.413,190.204 208.913,185.371 219.5,184C 238.003,183.528 256.503,183.694 275,184.5C 287.363,185.72 299.196,183.886 310.5,179C 313.596,173.825 312.596,169.492 307.5,166C 291.272,154.181 273.272,150.514 253.5,155C 237.439,159.798 221.439,164.798 205.5,170C 197.508,173.044 190.341,171.878 184,166.5C 182.517,163.298 182.183,159.964 183,156.5C 188.08,139.581 199.247,129.581 216.5,126.5C 217.167,126.833 217.833,127.167 218.5,127.5C 215.795,131.471 214.962,135.804 216,140.5C 217.853,142.592 220.186,143.592 223,143.5C 233.852,141.312 243.352,136.479 251.5,129C 255.042,127.725 258.375,126.225 261.5,124.5 Z"/></g>
<g><path style="opacity:1" fill="#161616" d="M 78.5,155.5 C 79.552,155.351 80.552,155.517 81.5,156C 71.4655,173.937 65.1321,193.104 62.5,213.5C 61.5,213.5 60.5,213.5 59.5,213.5C 62.2369,192.957 68.5702,173.623 78.5,155.5 Z"/></g>
<g><path style="opacity:1" fill="#a69357" d="M 186.5,153.5 C 187.376,153.369 188.043,153.702 188.5,154.5C 187.696,155.941 187.029,157.441 186.5,159C 187.56,161.251 188.393,163.418 189,165.5C 185.485,162.084 184.652,158.084 186.5,153.5 Z"/></g>
<g><path style="opacity:1" fill="#181818" d="M 418.5,155.5 C 419.675,155.281 420.675,155.614 421.5,156.5C 431.054,174.386 437.054,193.386 439.5,213.5C 438.5,213.5 437.5,213.5 436.5,213.5C 435.547,203.237 433.381,193.237 430,183.5C 426.43,174.031 422.597,164.698 418.5,155.5 Z"/></g>
<g><path style="opacity:1" fill="#060606" d="M 163.5,155.5 C 168.869,176.742 160.869,190.908 139.5,198C 137.179,198.837 134.845,199.17 132.5,199C 139.918,182.417 150.251,167.917 163.5,155.5 Z"/></g>
<g><path style="opacity:1" fill="#090909" d="M 353.5,176.5 C 367.268,195.125 374.935,216.125 376.5,239.5C 372.419,238.6 368.919,236.6 366,233.5C 362.221,228.277 359.221,222.61 357,216.5C 355.076,203.225 353.909,189.892 353.5,176.5 Z"/></g>
<g><path style="opacity:1" fill="#9b8951" d="M 152.5,180.5 C 153.239,180.369 153.906,180.536 154.5,181C 151.891,186.96 147.558,190.627 141.5,192C 146.741,189.594 150.408,185.761 152.5,180.5 Z"/></g>
<g><path style="opacity:1" fill="#9d8b52" d="M 325.5,185.5 C 326.239,185.369 326.906,185.536 327.5,186C 322.672,197.42 314.005,202.754 301.5,202C 307.773,200.798 313.773,198.798 319.5,196C 321.903,192.689 323.903,189.189 325.5,185.5 Z"/></g>
<g><path style="opacity:1" fill="#97854f" d="M 198.5,198.5 C 199.043,198.56 199.376,198.893 199.5,199.5C 194.505,204.979 192.172,211.479 192.5,219C 192.696,224.541 193.862,229.708 196,234.5C 188.27,221.902 189.104,209.902 198.5,198.5 Z"/></g>
<g><path style="opacity:1" fill="#95834e" d="M 144.5,225.5 C 150.917,225.374 156.251,228.041 160.5,233.5C 160.167,233.833 159.833,234.167 159.5,234.5C 155.556,229.696 150.556,226.696 144.5,225.5 Z"/></g>
<g><path style="opacity:1" fill="#d2ba70" d="M 57.5,229.5 C 58.3764,229.369 59.0431,229.702 59.5,230.5C 61.0392,233.746 62.7059,236.912 64.5,240C 68.6882,240.756 72.6882,241.922 76.5,243.5C 74.1833,246.317 71.6833,248.984 69,251.5C 68.7332,255.572 69.2332,259.572 70.5,263.5C 70.1667,263.833 69.8333,264.167 69.5,264.5C 65.9472,262.557 62.2806,260.89 58.5,259.5C 54.7194,260.89 51.0528,262.557 47.5,264.5C 47.1667,264 46.8333,263.5 46.5,263C 47.7889,259.234 48.2889,255.401 48,251.5C 45.3167,248.984 42.8167,246.317 40.5,243.5C 44.2766,241.807 48.2766,240.64 52.5,240C 54.5793,236.676 56.2459,233.176 57.5,229.5 Z"/></g>
<g><path style="opacity:1" fill="#d1ba70" d="M 439.5,232.5 C 441.977,235.438 443.977,238.771 445.5,242.5C 449.81,243.592 454.143,244.592 458.5,245.5C 455.683,248.818 452.683,251.985 449.5,255C 450.924,259.045 451.424,263.212 451,267.5C 447.317,265.493 443.651,263.493 440,261.5C 436.349,263.493 432.683,265.493 429,267.5C 428.52,263.395 429.02,259.395 430.5,255.5C 427.5,252.167 424.5,248.833 421.5,245.5C 425.81,244.408 430.143,243.408 434.5,242.5C 436.18,239.14 437.847,235.807 439.5,232.5 Z"/></g>
<g><path style="opacity:1" fill="#ae995b" d="M 325.5,240.5 C 325.56,239.957 325.893,239.624 326.5,239.5C 330.25,242.655 332.75,246.655 334,251.5C 334.953,258.006 334.62,264.339 333,270.5C 334.597,261.073 333.264,252.073 329,243.5C 327.961,242.29 326.794,241.29 325.5,240.5 Z"/></g>
<g><path style="opacity:1" fill="#171717" d="M 59.5,284.5 C 60.5,284.5 61.5,284.5 62.5,284.5C 65.5332,304.766 71.8666,323.933 81.5,342C 80.2161,342.684 79.0495,342.517 78,341.5C 68.9007,323.431 62.7341,304.431 59.5,284.5 Z"/></g>
<g><path style="opacity:1" fill="#161616" d="M 436.5,284.5 C 437.5,284.5 438.5,284.5 439.5,284.5C 436.673,305.174 430.173,324.507 420,342.5C 419.5,342.167 419,341.833 418.5,341.5C 427.728,323.485 433.728,304.485 436.5,284.5 Z"/></g>
<g><path style="opacity:1" fill="#675b37" d="M 243.5,340.5 C 244.657,338.862 245.824,337.196 247,335.5C 247.319,338.192 246.153,339.858 243.5,340.5 Z"/></g>
<g><path style="opacity:1" fill="#a89558" d="M 243.5,340.5 C 241.237,342.794 238.404,344.128 235,344.5C 234.5,344.167 234,343.833 233.5,343.5C 236.925,342.71 240.258,341.71 243.5,340.5 Z"/></g>
<g><path style="opacity:1" fill="#ac985a" d="M 274.5,355.5 C 275.043,355.56 275.376,355.893 275.5,356.5C 272.321,360.229 270.821,364.563 271,369.5C 269.608,364.093 270.774,359.426 274.5,355.5 Z"/></g>
<g><path style="opacity:1" fill="#111111" d="M 190.5,424.5 C 195.693,424.579 200.193,426.246 204,429.5C 203.326,435.876 202.159,442.209 200.5,448.5C 198.335,448.884 196.668,448.217 195.5,446.5C 196.861,441.722 198.528,437.056 200.5,432.5C 198.887,430.912 196.887,429.912 194.5,429.5C 192.432,434.704 190.765,440.038 189.5,445.5C 187.052,445.915 185.719,444.915 185.5,442.5C 187.174,436.482 188.84,430.482 190.5,424.5 Z"/></g>
<g><path style="opacity:1" fill="#111111" d="M 299.5,425.5 C 302.187,425.336 304.854,425.503 307.5,426C 308.308,426.308 308.975,426.808 309.5,427.5C 311.217,431.534 312.551,435.7 313.5,440C 313.385,441.895 312.718,443.562 311.5,445C 308.864,445.934 306.197,446.768 303.5,447.5C 301.893,447.363 300.559,446.696 299.5,445.5C 296.754,440.112 295.587,434.445 296,428.5C 297.145,427.364 298.312,426.364 299.5,425.5 Z"/></g>
<g><path style="opacity:1" fill="#f0f0f0" d="M 302.5,429.5 C 303.822,429.33 304.989,429.663 306,430.5C 307.927,434.064 308.427,437.731 307.5,441.5C 305.929,442.309 304.262,442.643 302.5,442.5C 301.5,438.5 300.5,434.5 299.5,430.5C 300.791,430.737 301.791,430.404 302.5,429.5 Z"/></g>
<g><path style="opacity:1" fill="#111111" d="M 219.5,431.5 C 220.833,431.5 222.167,431.5 223.5,431.5C 222.458,438.462 221.791,445.462 221.5,452.5C 219.833,452.5 218.167,452.5 216.5,452.5C 217.091,445.435 218.091,438.435 219.5,431.5 Z"/></g>
<g><path style="opacity:1" fill="#111111" d="M 272.5,431.5 C 279.497,430.666 282.664,433.666 282,440.5C 281.535,441.931 280.701,443.097 279.5,444C 280.929,446.69 281.929,449.523 282.5,452.5C 281.127,452.657 279.793,452.49 278.5,452C 275.076,443.524 273.076,444.024 272.5,453.5C 270.833,453.5 269.167,453.5 267.5,453.5C 267.073,446.468 266.406,439.468 265.5,432.5C 268.059,432.802 270.393,432.468 272.5,431.5 Z"/></g>
<g><path style="opacity:1" fill="#020202" d="M 252.5,437.5 C 250.5,437.5 248.5,437.5 246.5,437.5C 246.5,443.167 246.5,448.833 246.5,454.5C 245.167,454.5 243.833,454.5 242.5,454.5C 242.5,448.833 242.5,443.167 242.5,437.5C 240.833,437.5 239.167,437.5 237.5,437.5C 237.5,436.167 237.5,434.833 237.5,433.5C 242.5,433.5 247.5,433.5 252.5,433.5C 252.5,434.833 252.5,436.167 252.5,437.5 Z"/></g>
<g><path style="opacity:1" fill="#e6e6e6" d="M 270.5,436.5 C 272.833,436.5 275.167,436.5 277.5,436.5C 277.5,437.833 277.5,439.167 277.5,440.5C 275.167,441.167 272.833,441.833 270.5,442.5C 270.5,440.5 270.5,438.5 270.5,436.5 Z"/></g>
<g><path style="opacity:1" fill="#888888" d="M 252.5,437.5 C 251.081,438.451 249.415,438.784 247.5,438.5C 247.821,444.026 247.488,449.36 246.5,454.5C 246.5,448.833 246.5,443.167 246.5,437.5C 248.5,437.5 250.5,437.5 252.5,437.5 Z"/></g>
</svg>
